<svg height="46.264" viewBox="0 0 110.114 46.264" width="110.114" xmlns="http://www.w3.org/2000/svg"><g fill="#002a6b"><path d="m597.363 90.22a9.939 9.939 0 0 0 -5.5 1.4 11.554 11.554 0 0 0 -3.34 3.235v-12.879a5.508 5.508 0 0 0 -5.507-5.507h-2.44v44.82h7.837v-3.82a12.072 12.072 0 0 0 2.97 3.122 12.216 12.216 0 0 0 15.475-3.149 19.544 19.544 0 0 0 3.362-11.742q0-6.832-3.411-11.157a11.353 11.353 0 0 0 -9.446-4.321m2.8 22.84a5.51 5.51 0 0 1 -4.809 2.485 5.987 5.987 0 0 1 -5.313-2.569 11.256 11.256 0 0 1 -1.745-6.468 14.626 14.626 0 0 1 .845-5.413 5.963 5.963 0 0 1 5.99-3.933 5.874 5.874 0 0 1 5.9 4.017 14.561 14.561 0 0 1 .845 5.355 11.256 11.256 0 0 1 -1.716 6.525" transform="translate(-580.573 -75.834)"/><path d="m615.788 81.965h-2.566v16.541a11.979 11.979 0 0 1 -.777 4.712q-1.5 3.29-5.552 3.29-3.164 0-4.245-2.314a9.637 9.637 0 0 1 -.612-3.9v-12.937a5.392 5.392 0 0 0 -5.392-5.392h-2.752v18.325q0 5.215 1.309 7.892 2.334 4.853 9.065 4.854a12.237 12.237 0 0 0 4.075-.614 11.014 11.014 0 0 0 3.6-2.288 5.575 5.575 0 0 0 1.059-1.225c.3-.464.48-.745.556-.837v4.3h7.725v-24.913a5.5 5.5 0 0 0 -5.494-5.494" transform="translate(-558.945 -66.909)"/><path d="m635.8 81.986h-6.27a5.448 5.448 0 0 0 -4.749 2.776l-3.4 6.03-3.419-5.93a5.75 5.75 0 0 0 -4.98-2.876h-6.412l9.93 14.951-10.375 15.4h9.651l5.282-9.141 5.232 9.141h9.9l-10.375-15.537z" transform="translate(-539.084 -66.875)"/><path d="m622.034 81.965h-2.608v30.4h8.06v-24.948a5.451 5.451 0 0 0 -5.452-5.452" transform="translate(-517.483 -66.909)"/><path d="m623.586 85.025a4.4 4.4 0 1 0 -4.4-4.4 4.4 4.4 0 0 0 4.4 4.4" transform="translate(-517.873 -76.227)"/><path d="m668.992 83.909h-75.76a7.541 7.541 0 0 1 -7.543-7.541h75.763a7.543 7.543 0 0 1 7.541 7.541" transform="translate(-572.267 -75.997)"/></g></svg>