<svg xmlns="http://www.w3.org/2000/svg" width="110.114" height="46.264" viewBox="0 0 110.114 46.264">
  <g id="그룹_349" data-name="그룹 349" transform="translate(6328.396 -2420.654)">
    <g id="그룹_339" data-name="그룹 339" transform="translate(-654 -1193)">
      <g id="그룹_335" data-name="그룹 335" transform="translate(-5674.396 3613.654)">
        <path id="패스_227" data-name="패스 227" d="M597.363,90.22a9.939,9.939,0,0,0-5.5,1.4,11.554,11.554,0,0,0-3.34,3.235V81.976a5.508,5.508,0,0,0-5.507-5.507h-2.44v44.82h7.837v-3.82a12.072,12.072,0,0,0,2.97,3.122,12.216,12.216,0,0,0,15.475-3.149A19.544,19.544,0,0,0,610.22,105.7q0-6.832-3.411-11.157a11.353,11.353,0,0,0-9.446-4.321m2.8,22.84a5.51,5.51,0,0,1-4.809,2.485,5.987,5.987,0,0,1-5.313-2.569,11.256,11.256,0,0,1-1.745-6.468,14.626,14.626,0,0,1,.845-5.413,5.963,5.963,0,0,1,5.99-3.933,5.874,5.874,0,0,1,5.9,4.017,14.561,14.561,0,0,1,.845,5.355,11.256,11.256,0,0,1-1.716,6.525" transform="translate(-580.573 -75.834)" fill="#002a6b"/>
        <path id="패스_228" data-name="패스 228" d="M615.788,81.965h-2.566V98.506a11.979,11.979,0,0,1-.777,4.712q-1.5,3.29-5.552,3.29-3.164,0-4.245-2.314a9.637,9.637,0,0,1-.612-3.9V87.357a5.392,5.392,0,0,0-5.392-5.392h-2.752V100.29q0,5.215,1.309,7.892,2.334,4.853,9.065,4.854a12.237,12.237,0,0,0,4.075-.614,11.014,11.014,0,0,0,3.6-2.288A5.575,5.575,0,0,0,613,108.909c.3-.464.48-.745.556-.837v4.3h7.725V87.459a5.5,5.5,0,0,0-5.494-5.494" transform="translate(-558.945 -66.909)" fill="#002a6b"/>
        <path id="패스_229" data-name="패스 229" d="M635.8,81.986H629.53a5.448,5.448,0,0,0-4.749,2.776l-3.4,6.03-3.419-5.93a5.75,5.75,0,0,0-4.98-2.876h-6.412L616.5,96.937l-10.375,15.4h9.651l5.282-9.141,5.232,9.141h9.9L625.815,96.8Z" transform="translate(-539.084 -66.875)" fill="#002a6b"/>
        <path id="패스_230" data-name="패스 230" d="M622.034,81.965h-2.608v30.4h8.06V87.417a5.451,5.451,0,0,0-5.452-5.452" transform="translate(-517.483 -66.909)" fill="#002a6b"/>
        <path id="패스_231" data-name="패스 231" d="M623.586,85.025a4.4,4.4,0,1,0-4.4-4.4,4.4,4.4,0,0,0,4.4,4.4" transform="translate(-517.873 -76.227)" fill="#002a6b"/>
        <path id="패스_232" data-name="패스 232" d="M668.992,83.909h-75.76a7.541,7.541,0,0,1-7.543-7.541h75.763a7.543,7.543,0,0,1,7.541,7.541" transform="translate(-572.267 -75.997)" fill="#002a6b"/>
      </g>
    </g>
  </g>
</svg>
