<svg xmlns="http://www.w3.org/2000/svg" xmlns:xlink="http://www.w3.org/1999/xlink" width="180.943" height="36.374" viewBox="0 0 180.943 36.374">
  <defs>
    <clipPath id="clip-path">
      <rect id="사각형_283" data-name="사각형 283" width="180.944" height="36.374" fill="none"/>
    </clipPath>
  </defs>
  <g id="그룹_345" data-name="그룹 345" transform="translate(7197.413 -2427.263)">
    <g id="그룹_344" data-name="그룹 344" transform="translate(44.798 5.663)">
      <g id="그룹_343" data-name="그룹 343" transform="translate(-7242.211 2421.6)">
        <g id="그룹_342" data-name="그룹 342" transform="translate(0 0)" clip-path="url(#clip-path)">
          <path id="패스_408" data-name="패스 408" d="M28.079,17.357a6.558,6.558,0,0,0-9.328,1.958A6.563,6.563,0,0,1,6.886,17.51h0a.475.475,0,0,0-.019-.068.739.739,0,0,0-.021-.082,8.464,8.464,0,0,1-.336-2.609c0-5.883,6.034-12.432,14.727-12.432A16.579,16.579,0,0,1,36.543,12.862c-.022-.066-.042-.133-.066-.2A18.746,18.746,0,0,0,0,18.743C0,28,6.672,35.916,15.93,35.916a15.058,15.058,0,0,0,14.622-9.846,7.226,7.226,0,0,0-2.474-8.714" transform="translate(0 0)" fill="#002b51"/>
          <path id="패스_409" data-name="패스 409" d="M45.176,16.26A16.53,16.53,0,0,0,29.751,5.352c-8.693,0-14.727,6.55-14.727,12.433a8.463,8.463,0,0,0,.336,2.608,5.534,5.534,0,0,1-.173-1.339c0-6.125,6.135-10.37,12.44-10.37A15.454,15.454,0,0,1,43.082,24.137,17.037,17.037,0,0,1,33.637,39.4l0,.005A18.775,18.775,0,0,0,45.176,16.26" transform="translate(-8.516 -3.034)" fill="#da0021"/>
          <path id="패스_410" data-name="패스 410" d="M124.362,31.387v2.062H117v2.9h-2.375v-2.9H107.12V31.387Zm-15.855-9.126h14.468v7.211H108.506Zm2.335,12.51V38.41h12.365v2.06h-14.7v-5.7Zm9.82-10.513H110.8v3.281h9.862Z" transform="translate(-60.716 -12.618)" fill="#464545"/>
          <path id="패스_411" data-name="패스 411" d="M163.578,38.446h-12.3V36.406h4.943V34.071a4.015,4.015,0,0,1-.632-.209,4.912,4.912,0,0,1-1.473-.9,4.378,4.378,0,0,1-.987-1.359,3.8,3.8,0,0,1-.359-1.63,3.728,3.728,0,0,1,.359-1.618,4.41,4.41,0,0,1,.987-1.347,4.559,4.559,0,0,1,1.462-.914,4.812,4.812,0,0,1,1.776-.326,4.714,4.714,0,0,1,1.766.326,4.342,4.342,0,0,1,1.432.914,4.546,4.546,0,0,1,1,1.347,3.635,3.635,0,0,1,.37,1.618,3.707,3.707,0,0,1-.37,1.63,4.51,4.51,0,0,1-1,1.359,4.692,4.692,0,0,1-1.432.9,3.811,3.811,0,0,1-.692.232v2.313h5.152Zm-7.528-15.014v-2h2.523v2h4.564v2H151.489v-2Zm3.6,6.519a2.148,2.148,0,0,0-.674-1.587,2.361,2.361,0,0,0-3.282,0,2.162,2.162,0,0,0-.671,1.587,2.2,2.2,0,0,0,.671,1.6,2.336,2.336,0,0,0,3.282,0,2.186,2.186,0,0,0,.674-1.6m7.569,10.367H164.9V21.56h2.313V29.7h2.4v2.25h-2.4Z" transform="translate(-85.745 -12.149)" fill="#464545"/>
          <path id="패스_412" data-name="패스 412" d="M195.956,25.43v-2h3.974v-2h2.459v2h3.744v2h-4.249l4.459,11.8-2.04.694-3.132-8.5-3.132,8.643-2.106-.672,4.481-11.966Zm11.732-3.849h2.166V40.213h-2.166V31.149h-2.439V29.026h2.439Zm3.933-.02h2.25V40.319h-2.25Z" transform="translate(-111.056 -12.149)" fill="#464545"/>
          <path id="패스_413" data-name="패스 413" d="M258.486,34.11v5.783h-2.335V36.107H243.577v-2h2.985l.022-2.189h-3.953V29.9h17.243v2.018H255.9V34.11Zm-2.608-9.169A3.759,3.759,0,0,1,255.5,26.6a4.376,4.376,0,0,1-2.46,2.3,4.643,4.643,0,0,1-1.787.346,4.722,4.722,0,0,1-1.8-.346,4.34,4.34,0,0,1-2.47-2.3,3.815,3.815,0,0,1,0-3.323,5.145,5.145,0,0,1,.987-1.388,4.8,4.8,0,0,1,1.483-.937,4.73,4.73,0,0,1,1.8-.346,4.652,4.652,0,0,1,1.787.346,4.857,4.857,0,0,1,1.471.937,5.15,5.15,0,0,1,.989,1.388,3.758,3.758,0,0,1,.378,1.661m-7.171,9.169h5.047V31.921H248.73Zm4.881-9.169a2.16,2.16,0,0,0-.685-1.61,2.285,2.285,0,0,0-1.65-.661,2.32,2.32,0,0,0-1.662.661,2.148,2.148,0,0,0-.7,1.61,2.175,2.175,0,0,0,.7,1.619,2.3,2.3,0,0,0,1.662.672,2.269,2.269,0,0,0,1.65-.672,2.188,2.188,0,0,0,.685-1.619" transform="translate(-137.525 -11.682)" fill="#464545"/>
          <path id="패스_414" data-name="패스 414" d="M299.175,30.706v2.038H287.969V30.706h3.784v-4.08h2.208v4.08Zm-2.922-1.725V24.186h-7.76V22.1h10.031v6.876Zm-5.109,5.256v3.808h12.974V40.1H288.809V34.236Zm12.467-.84h-2.332V21.725h2.332V26.31h2.4v2.227h-2.4Z" transform="translate(-163.223 -12.314)" fill="#464545"/>
          <path id="패스_415" data-name="패스 415" d="M337.087,29.779V26.12h2.207v3.659h5.217v1.955H333.3V29.779Zm4.5-1.682V24.165h-7.761V22.1h10.03V28.1Zm5.677,8.663a3.745,3.745,0,0,1-.379,1.672,4.905,4.905,0,0,1-1.008,1.376,4.6,4.6,0,0,1-1.449.937,4.883,4.883,0,0,1-3.618,0,4.821,4.821,0,0,1-1.474-.937,4.721,4.721,0,0,1-1-1.376,3.81,3.81,0,0,1-.37-1.672,3.959,3.959,0,0,1,.37-1.693,4.673,4.673,0,0,1,1-1.4,5.058,5.058,0,0,1,1.474-.914,4.883,4.883,0,0,1,3.618,0,4.517,4.517,0,0,1,2.458,2.312,3.891,3.891,0,0,1,.379,1.693m-2.293-.021a2.23,2.23,0,0,0-.693-1.649,2.284,2.284,0,0,0-1.661-.684,2.315,2.315,0,0,0-1.673.684,2.215,2.215,0,0,0-.7,1.649,2.147,2.147,0,0,0,.7,1.63,2.359,2.359,0,0,0,1.673.663,2.328,2.328,0,0,0,1.661-.663,2.161,2.161,0,0,0,.693-1.63m3.974-4.689h-2.333V21.725h2.333v3.828h2.4v2.186h-2.4Z" transform="translate(-188.918 -12.314)" fill="#464545"/>
          <path id="패스_416" data-name="패스 416" d="M377.9,33.968h17.242v2.061h-7.464v4.835h-2.334V36.029H377.9Zm3.679-9.169h9.863V22.424h2.312v9.02H379.283v-9.02h2.291Zm9.863,2.02h-9.863v2.586h9.863Z" transform="translate(-214.193 -12.71)" fill="#464545"/>
        </g>
      </g>
    </g>
  </g>
</svg>
