<svg height="36.374" viewBox="0 0 180.943 36.374" width="180.943" xmlns="http://www.w3.org/2000/svg" xmlns:xlink="http://www.w3.org/1999/xlink"><clipPath id="a"><path d="m0 0h180.944v36.374h-180.944z"/></clipPath><g clip-path="url(#a)" transform="translate(0)"><path d="m28.079 17.357a6.558 6.558 0 0 0 -9.328 1.958 6.563 6.563 0 0 1 -11.865-1.805.475.475 0 0 0 -.019-.068.739.739 0 0 0 -.021-.082 8.464 8.464 0 0 1 -.336-2.609c0-5.883 6.034-12.432 14.727-12.432a16.579 16.579 0 0 1 15.306 10.543c-.022-.066-.042-.133-.066-.2a18.746 18.746 0 0 0 -36.477 6.081c0 9.257 6.672 17.173 15.93 17.173a15.058 15.058 0 0 0 14.622-9.846 7.226 7.226 0 0 0 -2.474-8.714" fill="#002b51"/><path d="m45.176 16.26a16.53 16.53 0 0 0 -15.425-10.908c-8.693 0-14.727 6.55-14.727 12.433a8.463 8.463 0 0 0 .336 2.608 5.534 5.534 0 0 1 -.173-1.339c0-6.125 6.135-10.37 12.44-10.37a15.454 15.454 0 0 1 15.455 15.453 17.037 17.037 0 0 1 -9.445 15.263v.005a18.775 18.775 0 0 0 11.539-23.145" fill="#da0021" transform="translate(-8.516 -3.034)"/><g fill="#464545"><path d="m124.362 31.387v2.062h-7.362v2.9h-2.375v-2.9h-7.505v-2.062zm-15.855-9.126h14.468v7.211h-14.469zm2.335 12.51v3.639h12.365v2.06h-14.7v-5.7zm9.82-10.513h-9.862v3.281h9.862z" transform="translate(-60.716 -12.618)"/><path d="m163.578 38.446h-12.3v-2.04h4.943v-2.335a4.015 4.015 0 0 1 -.632-.209 4.912 4.912 0 0 1 -1.473-.9 4.378 4.378 0 0 1 -.987-1.359 3.8 3.8 0 0 1 -.359-1.63 3.728 3.728 0 0 1 .359-1.618 4.41 4.41 0 0 1 .987-1.347 4.559 4.559 0 0 1 1.462-.914 4.812 4.812 0 0 1 1.776-.326 4.714 4.714 0 0 1 1.766.326 4.342 4.342 0 0 1 1.432.914 4.546 4.546 0 0 1 1 1.347 3.635 3.635 0 0 1 .37 1.618 3.707 3.707 0 0 1 -.37 1.63 4.51 4.51 0 0 1 -1 1.359 4.692 4.692 0 0 1 -1.432.9 3.811 3.811 0 0 1 -.692.232v2.313h5.152zm-7.528-15.014v-2h2.523v2h4.564v2h-11.648v-2zm3.6 6.519a2.148 2.148 0 0 0 -.674-1.587 2.361 2.361 0 0 0 -3.282 0 2.162 2.162 0 0 0 -.671 1.587 2.2 2.2 0 0 0 .671 1.6 2.336 2.336 0 0 0 3.282 0 2.186 2.186 0 0 0 .674-1.6m7.569 10.367h-2.319v-18.758h2.313v8.14h2.4v2.25h-2.4z" transform="translate(-85.745 -12.149)"/><path d="m195.956 25.43v-2h3.974v-2h2.459v2h3.744v2h-4.249l4.459 11.8-2.04.694-3.132-8.5-3.132 8.643-2.106-.672 4.481-11.966zm11.732-3.849h2.166v18.632h-2.166v-9.064h-2.439v-2.123h2.439zm3.933-.02h2.25v18.758h-2.25z" transform="translate(-111.056 -12.149)"/><path d="m258.486 34.11v5.783h-2.335v-3.786h-12.574v-2h2.985l.022-2.189h-3.953v-2.018h17.243v2.018h-3.974v2.192zm-2.608-9.169a3.759 3.759 0 0 1 -.378 1.659 4.376 4.376 0 0 1 -2.46 2.3 4.643 4.643 0 0 1 -1.787.346 4.722 4.722 0 0 1 -1.8-.346 4.34 4.34 0 0 1 -2.47-2.3 3.815 3.815 0 0 1 0-3.323 5.145 5.145 0 0 1 .987-1.388 4.8 4.8 0 0 1 1.483-.937 4.73 4.73 0 0 1 1.8-.346 4.652 4.652 0 0 1 1.787.346 4.857 4.857 0 0 1 1.471.937 5.15 5.15 0 0 1 .989 1.388 3.758 3.758 0 0 1 .378 1.661m-7.171 9.169h5.047v-2.186h-5.024zm4.881-9.169a2.16 2.16 0 0 0 -.685-1.61 2.285 2.285 0 0 0 -1.65-.661 2.32 2.32 0 0 0 -1.662.661 2.148 2.148 0 0 0 -.7 1.61 2.175 2.175 0 0 0 .7 1.619 2.3 2.3 0 0 0 1.662.672 2.269 2.269 0 0 0 1.65-.672 2.188 2.188 0 0 0 .685-1.619" transform="translate(-137.525 -11.682)"/><path d="m299.175 30.706v2.038h-11.206v-2.038h3.784v-4.08h2.208v4.08zm-2.922-1.725v-4.795h-7.76v-2.086h10.031v6.876zm-5.109 5.256v3.808h12.974v2.055h-15.309v-5.864zm12.467-.84h-2.332v-11.672h2.332v4.585h2.4v2.227h-2.4z" transform="translate(-163.223 -12.314)"/><path d="m337.087 29.779v-3.659h2.207v3.659h5.217v1.955h-11.211v-1.955zm4.5-1.682v-3.932h-7.761v-2.065h10.03v6zm5.677 8.663a3.745 3.745 0 0 1 -.379 1.672 4.905 4.905 0 0 1 -1.008 1.376 4.6 4.6 0 0 1 -1.449.937 4.883 4.883 0 0 1 -3.618 0 4.821 4.821 0 0 1 -1.474-.937 4.721 4.721 0 0 1 -1-1.376 3.81 3.81 0 0 1 -.37-1.672 3.959 3.959 0 0 1 .37-1.693 4.673 4.673 0 0 1 1-1.4 5.058 5.058 0 0 1 1.474-.914 4.883 4.883 0 0 1 3.618 0 4.517 4.517 0 0 1 2.458 2.312 3.891 3.891 0 0 1 .379 1.693m-2.293-.021a2.23 2.23 0 0 0 -.693-1.649 2.284 2.284 0 0 0 -1.661-.684 2.315 2.315 0 0 0 -1.673.684 2.215 2.215 0 0 0 -.7 1.649 2.147 2.147 0 0 0 .7 1.63 2.359 2.359 0 0 0 1.673.663 2.328 2.328 0 0 0 1.661-.663 2.161 2.161 0 0 0 .693-1.63m3.974-4.689h-2.333v-10.323h2.333v3.828h2.4v2.186h-2.4z" transform="translate(-188.918 -12.314)"/><path d="m377.9 33.968h17.242v2.061h-7.464v4.835h-2.334v-4.835h-7.444zm3.679-9.169h9.863v-2.375h2.312v9.02h-14.471v-9.02h2.291zm9.863 2.02h-9.863v2.586h9.863z" transform="translate(-214.193 -12.71)"/></g></g></svg>