<svg height="55.536" viewBox="0 0 180.264 55.536" width="180.264" xmlns="http://www.w3.org/2000/svg"><g><path d="m70.75 78.557v5.816h-1.529v-5.816h-3.942v.46c.4 0 .764.679.764 1.4v12.509h-8.13v-11.2h5.417v-2.644h-9.59v.473c.394 0 .771.671.771 1.385v14.631h11.537v4.2h3.174v-12.778h1.528v12.776h3.407v-21.212z" fill="#373635" transform="translate(57.67 -66.626)"/><path d="m95.078 95.785v-16.958h-16.693v2.645h13.284v14.313h-2.714v-7.458h-3.248v7.457h-1.837v-7.457h-3.792v.473h.006c.4 0 .768.668.768 1.387v5.6h-3.594v2.651h19.877v-2.653z" fill="#373635" transform="translate(83.128 -66.334)"/><path d="m50.018 78.557v21.213h3.407v-21.213z" fill="#373635" transform="translate(53.64 -66.626)"/><path d="m48.8 78.557v.46h.006c.389 0 .771.679.771 1.4v3.961h-3.382v2.62h3.386v12.771h3.184v-21.212z" fill="#373635" transform="translate(49.502 -66.626)"/><path d="m48.638 87.372-.179-.14.037-.09a17.322 17.322 0 0 0 2.08-8.33v-.008h-4.927v.473c.046 0 1.079.246 1.079 1.974 0 .11.017 5.856-5.531 11 .154.146 1.458 1.4 1.572 1.5h.008a16.51 16.51 0 0 0 4.246-4.3l.071-.1.1.081a21.564 21.564 0 0 1 4.407 5c.2-.271 1.774-2.466 1.862-2.6a26.3 26.3 0 0 0 -4.823-4.475" fill="#373635" transform="translate(44.094 -66.358)"/><path d="m66.469 87.913h14.213v4.579h3.409v-7.23h-17.622z" fill="#373635" transform="translate(71.449 -59.369)"/><path d="m77.1 78.546h-4.177v.469c.4 0 .771.677.771 1.389v10.316h3.406v-3.736h3.34v-2.613h-3.34z" fill="#373635" transform="translate(78.435 -66.638)"/><path d="m66.1 86.326c0 2.851 2.711 5.179 6.039 5.179s6.035-2.328 6.035-5.179a4.883 4.883 0 0 0 -2.043-3.871h2.753v-2.643h-4.762v-1.8h-4.172v.464h.006c.339 0 .683.556.739 1.2l.01.129h-5.08v2.643h2.52a4.885 4.885 0 0 0 -2.045 3.878m6.039 2.955a3.156 3.156 0 1 1 2.682-3.12 2.925 2.925 0 0 1 -2.682 3.12" fill="#373635" transform="translate(70.535 -67.213)"/><path d="m35.854 85.362h-4.173v.469c.394 0 .773.673.773 1.383v5.029h16.246v-2.643h-12.846z" fill="#373635" transform="translate(33.791 -59.26)"/><path d="m42.021 88.35h4.379v5.523h3.4v-15.319h-4.168v.46c.394 0 .771.683.771 1.393v.823h-4.686a6.567 6.567 0 0 0 -4.942-2.178 5.941 5.941 0 1 0 0 11.852 6.525 6.525 0 0 0 5.246-2.553m4.379-4.485v1.841h-3.3a5.61 5.61 0 0 0 .052-.729 5.461 5.461 0 0 0 -.117-1.112zm-12.595 1.1a3.276 3.276 0 0 1 2.965-3.509 3.557 3.557 0 0 1 0 7.016 3.277 3.277 0 0 1 -2.965-3.507" fill="#373635" transform="translate(32.407 -66.629)"/><path d="m39.023 91.358a4.024 4.024 0 0 0 -4.311 4.094 3.979 3.979 0 0 0 4.211 4.1 4.116 4.116 0 0 0 4.323-4.28c0-2.418-1.616-3.915-4.223-3.915m.329 7.5c-1.793 0-3.045-1.526-3.045-3.719 0-2.7 1.518-3.1 2.422-3.1 1.708 0 2.9 1.487 2.9 3.615 0 2.891-1.593 3.2-2.278 3.2" fill="#373635" transform="translate(37.072 -52.769)"/><path d="m48.09 93.359h-.446a1.378 1.378 0 0 0 -.242-.879 1.194 1.194 0 0 0 -1.039-.464c-.683 0-1.125.375-1.125.96 0 .4.162.723 1.048 1.4l.287.212c1.26.981 1.708 1.678 1.708 2.678a2.162 2.162 0 0 1 -1 1.858 3.627 3.627 0 0 1 -3.447 0v-1.972h.41a7.6 7.6 0 0 0 .14.76 1.324 1.324 0 0 0 1.366.964 1.158 1.158 0 0 0 1.279-1.07c0-.491-.169-.939-.97-1.56l-.467-.371a3.15 3.15 0 0 1 -1.551-2.493c0-1.189 1-2.024 2.455-2.024a2.778 2.778 0 0 1 1.6.3z" fill="#373635" transform="translate(46.945 -52.769)"/><path d="m79.1 93.359h-.439a1.374 1.374 0 0 0 -.248-.879 1.194 1.194 0 0 0 -1.039-.464c-.681 0-1.125.375-1.125.96 0 .4.162.723 1.048 1.4l.287.212c1.264.981 1.714 1.678 1.714 2.678a2.169 2.169 0 0 1 -1.01 1.858 3.615 3.615 0 0 1 -3.44 0v-1.972h.4a7.161 7.161 0 0 0 .142.76 1.326 1.326 0 0 0 1.368.964 1.158 1.158 0 0 0 1.277-1.07c0-.491-.167-.939-.968-1.56l-.469-.371a3.152 3.152 0 0 1 -1.549-2.493c0-1.189 1-2.024 2.455-2.024a2.757 2.757 0 0 1 1.593.3z" fill="#373635" transform="translate(80.516 -52.769)"/><path d="m50.687 92.131c.7 0 .727.383.727.914h.362v-1.618h-5.085v.364h.233c.348 0 .787.1.787.693v5.679c0 .762-.217.814-.7.812h-.171v.36h5.194v-1.744h-.375c0 .775-.306 1.043-.839 1.043h-1.62v-3.159h1.51c.527 0 .539.177.539.716h.364v-2.134h-.363c0 .546-.012.718-.539.718h-1.511v-2.644z" fill="#373635" transform="translate(50.039 -52.694)"/><path d="m72.064 92.131c.7 0 .727.383.727.914h.367v-1.618h-5.09v.364h.232c.352 0 .789.1.789.693v5.679c0 .762-.223.814-.7.812h-.169v.36h5.192v-1.744h-.373c0 .775-.308 1.043-.839 1.043h-1.627v-3.159h1.52c.519 0 .533.177.533.716h.362v-2.134h-.362c0 .546-.015.718-.533.718h-1.52v-2.644z" fill="#373635" transform="translate(73.18 -52.694)"/><path d="m53.232 98.975c-.406 0-.758-.06-.758-.523v-6.126c0-.512.242-.539.866-.539v-.358h-3.226v.362h.186c.258 0 .7.071.7.535v6.127c0 .506-.262.521-.889.521v.36h3.489v-.358z" fill="#373635" transform="translate(53.745 -52.693)"/><path d="m65.522 98.975c-.4 0-.758-.06-.758-.523v-6.126c0-.512.242-.539.868-.539v-.358h-3.223v.362h.185c.26 0 .7.071.7.535v6.127c0 .506-.264.521-.887.521v.36h3.478v-.358z" fill="#373635" transform="translate(67.054 -52.693)"/><path d="m80.516 98.975c-.41 0-.762-.06-.762-.523v-6.126c0-.512.244-.539.868-.539v-.358h-3.222v.362h.181c.267 0 .706.071.706.535v6.127c0 .506-.262.521-.887.521v.36h3.48v-.358z" fill="#373635" transform="translate(83.28 -52.693)"/><path d="m33.789 91.79h.169v-.36h-2.939v.36a1.537 1.537 0 0 1 .654.129 2.487 2.487 0 0 1 .675.716c.36.539 1.72 2.776 1.787 2.928a2.051 2.051 0 0 1 .227 1.033v1.72c0 .656-.358.656-.866.656v.367h3.461v-.364h-.257c-.473 0-.866-.037-.866-.683v-1.7a2.345 2.345 0 0 1 .148-.985 32.917 32.917 0 0 1 1.937-3.228 1.557 1.557 0 0 1 .519-.473.829.829 0 0 1 .412-.121h.281v-.36h-2.6v.36h.269c.112 0 .154.083.154.173a1.237 1.237 0 0 1 -.146.5c-.071.154-1.456 2.649-1.456 2.649s-1.532-2.646-1.652-2.892l-.112-.31.067-.092z" fill="#373635" transform="translate(33.074 -52.693)"/><path d="m85.658 91.79h.169v-.36h-2.937v.36a1.542 1.542 0 0 1 .654.129 2.514 2.514 0 0 1 .673.716c.362.539 1.724 2.776 1.789 2.928a2.073 2.073 0 0 1 .227 1.033v1.72c0 .656-.36.656-.868.656v.367h3.463v-.364h-.256c-.473 0-.864-.037-.864-.683v-1.7a2.375 2.375 0 0 1 .146-.985 32.939 32.939 0 0 1 1.939-3.228 1.482 1.482 0 0 1 .519-.473.829.829 0 0 1 .412-.121h.276v-.36h-2.6v.36h.267a.152.152 0 0 1 .154.173 1.257 1.257 0 0 1 -.15.5c-.071.154-1.456 2.649-1.456 2.649s-1.529-2.649-1.645-2.895l-.112-.31.073-.092z" fill="#373635" transform="translate(89.225 -52.693)"/><path d="m42.043 98.973v.362h-2.922v-.362c.456 0 .933.037.933-.841v-6.7h.489c.925.95 5.335 5.508 5.481 5.66v-4.527c0-.8-.639-.777-1.033-.777v-.36h2.695v.36c-.429 0-.852-.027-.852.777v6.77h-.529l-5.439-5.56v4.357c0 .756.441.841.881.841z" fill="#373635" transform="translate(41.845 -52.693)"/><path d="m60.683 98.973v.362h-2.92v-.362c.458 0 .927.037.927-.841v-6.7h.494c.925.95 5.337 5.508 5.479 5.66v-4.527c0-.8-.635-.777-1.033-.777v-.36h2.7v.36c-.429 0-.854-.027-.854.777v6.77h-.526l-5.442-5.56v4.357c0 .756.437.841.879.841z" fill="#373635" transform="translate(62.025 -52.693)"/><path d="m59.19 91.79c.26 0 .714.073.714.548v3.388a3.477 3.477 0 0 1 -.571 2.489 1.973 1.973 0 0 1 -1.366.531 1.806 1.806 0 0 1 -1.231-.4c-.4-.327-.775-.854-.775-2.466v-3.54c0-.514.248-.55.873-.55v-.36h-3.227v.362h.187c.26 0 .7.081.7.548v3.6a3.493 3.493 0 0 0 .933 2.77 3.4 3.4 0 0 0 2.33.727 3.135 3.135 0 0 0 2.187-.754 3.941 3.941 0 0 0 1-3.145v-3.2c0-.51.25-.55.875-.55v-.36h-2.806v.362z" fill="#373635" transform="translate(57.526 -52.693)"/><path d="m81.157 98.975v.36h3.484v-.362h-.3c-.427 0-.823-.04-.823-.527v-6.308h1.547c.7 0 .783.381.858.908h.423l-.233-1.618h-6.66l-.233 1.618h.421c.071-.527.156-.908.856-.908h1.549v6.318c0 .45-.2.519-.683.519z" fill="#373635" transform="translate(85.252 -52.693)"/><path d="m78.919 98.956a1.992 1.992 0 0 1 -1.1-.675c-.523-.548-1.12-1.3-1.87-2.247l-.31-.387a2.932 2.932 0 0 0 1.324-2.307 1.8 1.8 0 0 0 -.727-1.447 3.469 3.469 0 0 0 -1.935-.464h-3.046v.362h.175c.254 0 .71.071.71.541v6.123c0 .452-.208.519-.7.519h-.194v.36h3.482v-.36h-.328c-.406 0-.781-.056-.781-.527v-2.315h.929l1.039 1.462a4.943 4.943 0 0 0 1.433 1.526 2.156 2.156 0 0 0 1.135.212h1.045v-.35c-.2-.015-.279-.027-.279-.027m-3.892-3.626a.968.968 0 0 1 -.685.16h-.727v-3.417h.494c.55 0 1.487.364 1.487 1.785a1.726 1.726 0 0 1 -.569 1.474" fill="#373635" transform="translate(76.625 -52.693)"/><path d="m72.589 91.789v-.36h-2.636v.36h.3l.2.152a1.331 1.331 0 0 1 -.09.523s-1.77 4.529-1.862 4.761c-.079-.194-1.885-5.006-1.885-5.006l-.052-.283a.24.24 0 0 1 .221-.148h.3v-.358h-2.985v.358a1.359 1.359 0 0 1 .621.137 1.486 1.486 0 0 1 .469.716l2.83 6.781h.335l3.124-7.033s.279-.61.82-.6z" fill="#373635" transform="translate(68.883 -52.692)"/><path d="m.242 100.593a27.769 27.769 0 1 0 27.764-27.764 27.8 27.8 0 0 0 -27.764 27.764" fill="#fff" transform="translate(-.242 -72.827)"/><path d="m.637 100.167a26.949 26.949 0 1 1 26.946 26.953 26.979 26.979 0 0 1 -26.946-26.953" fill="#0a2346" transform="translate(.186 -72.403)"/><g fill="#fff"><path d="m23.782 116.01a19.639 19.639 0 1 1 19.644-19.636 19.637 19.637 0 0 1 -19.644 19.636" transform="translate(3.984 -68.602)"/><path d="m2.67 89.613a.757.757 0 1 0 1.514 0 .757.757 0 0 0 -1.514 0" transform="translate(2.386 -55.47)"/><path d="m25.417 89.677a.767.767 0 1 1 -.766-.771.768.768 0 0 1 .766.771" transform="translate(25.348 -55.424)"/><path d="m4.537 81.877a1.877 1.877 0 0 0 -1.46.081 2.178 2.178 0 0 0 -1.01 1.32 2.131 2.131 0 0 0 .085 1.647 2.036 2.036 0 0 0 1.2.989 1.954 1.954 0 0 0 2.548-1.367 2.119 2.119 0 0 0 -.1-1.647 2.146 2.146 0 0 0 -1.264-1.025m1.112 2.364a1.626 1.626 0 0 1 -2.212.887c-1.279-.406-1.237-1.185-1.106-1.614a1.291 1.291 0 0 1 .654-.775 1.972 1.972 0 0 1 1.489-.054 1.78 1.78 0 0 1 1.114.779 1.026 1.026 0 0 1 .06.777" transform="translate(1.6 -63.149)"/><path d="m6.931 81.571-.7-.671.137-.144.321.208a.65.65 0 0 0 .81-.16.573.573 0 0 0 .058-.823.926.926 0 0 0 -.891-.187l-.294.044a1.552 1.552 0 0 1 -1.418-.3 1.068 1.068 0 0 1 .112-1.568c.419-.439.654-.469.654-.469l.606.581-.148.158a.6.6 0 0 0 -.923 0 .487.487 0 0 0 -.037.731c.142.135.312.187.854.1l.177-.029a1.626 1.626 0 0 1 1.543.3 1.064 1.064 0 0 1 .317.993 1.466 1.466 0 0 1 -.412.748 1.5 1.5 0 0 1 -.764.483" transform="translate(4.54 -67.769)"/><path d="m21.743 80.763.8-.552.115.171-.275.269a.652.652 0 0 0 -.01.825.57.57 0 0 0 .791.225c.2-.137.342-.329.371-.831l.017-.292a1.57 1.57 0 0 1 .587-1.329 1.071 1.071 0 0 1 1.512.437 1.386 1.386 0 0 1 .325.733l-.7.477-.123-.179a.612.612 0 0 0 .292-.35.586.586 0 0 0 -.1-.552.484.484 0 0 0 -.7-.194c-.165.115-.254.273-.283.82l-.008.175c-.048.789-.208 1.17-.618 1.447a1.065 1.065 0 0 1 -1.037.106 1.779 1.779 0 0 1 -.956-1.408" transform="translate(23.026 -66.058)"/><path d="m8.621 78.014c.2-.152.262-.09.425.127l.142-.11-.629-.843-.146.11c.158.212.208.287 0 .441l-.6.446-.785-1.045s.471-.35.594-.439c.275-.206.4-.067.554.148l.148-.112-.477-.641-2.017 1.504.108.148c.135-.1.389-.323.606-.035l1.681 2.257c.252.337.129.394-.108.571l.121.154 2.058-1.539-.525-.691-.146.11c.231.306.187.5-.023.664l-.648.477-.933-1.246z" transform="translate(5.807 -69.293)"/><path d="m21.416 78.56c.214.144.171.217.019.437l.152.11.587-.883-.152-.1c-.148.225-.2.292-.414.15l-.623-.421.729-1.085s.481.327.612.41c.283.194.192.356.044.573l.15.1.446-.66-2.089-1.4-.1.152c.14.094.431.26.229.56s-1.562 2.334-1.562 2.334c-.235.348-.327.248-.573.085l-.11.162 2.139 1.431.481-.721-.154-.106c-.214.319-.414.346-.631.2-.144-.1-.671-.452-.671-.452l.87-1.3z" transform="translate(19.803 -69.622)"/><path d="m8.853 75.864c-.11-.223-.006-.287.269-.427l-.083-.165-1.423.728.085.162s.36-.256.51.031c.071.144 1.379 2.695 1.379 2.695.117.223 0 .292-.269.433l.085.16 1.529-.785-.081-.165c-.229.121-.479.289-.612.023s-1.389-2.693-1.389-2.693" transform="translate(7.741 -70.181)"/><path d="m14.22 76.179-.312-1.556c-.046-.248.069-.277.373-.342l-.04-.175-1.36.273.037.177s.417-.152.481.169l.331 1.647a1.7 1.7 0 0 1 -.035 1.26.994.994 0 0 1 -.608.4.926.926 0 0 1 -.639-.081c-.221-.117-.454-.337-.61-1.122l-.348-1.718c-.048-.242.069-.277.377-.337l-.04-.179-1.566.312.033.177s.421-.146.487.171l.353 1.745a1.726 1.726 0 0 0 .721 1.256 1.679 1.679 0 0 0 1.2.127 1.549 1.549 0 0 0 .985-.581 1.947 1.947 0 0 0 .179-1.622" transform="translate(10.604 -71.443)"/><path d="m17.515 75c.058-.248.177-.227.479-.158l.042-.175-1.556-.362-.04.177s.439.035.367.354c-.033.156-.683 2.951-.683 2.951-.054.242-.181.221-.483.152l-.044.177 1.678.389.042-.175c-.254-.056-.548-.092-.483-.379s.681-2.951.681-2.951" transform="translate(16.38 -71.228)"/><path d="m26.225 81.77c.225-.108.287-.006.423.271l.162-.079-.7-1.433-.165.079s.252.367-.042.51c-.144.069-2.718 1.335-2.718 1.335-.227.11-.287 0-.427-.281l-.165.081.76 1.547.16-.079c-.112-.231-.277-.485-.008-.612s2.718-1.339 2.718-1.339" transform="translate(23.955 -64.492)"/><path d="m26.791 82.011-.8.115.058.2c.262-.042.452-.056.552.275.019.065.054.185.221.741-.448.129-3 .885-3 .885-.242.071-.283-.052-.369-.35l-.179.05.491 1.656.171-.05c-.071-.25-.194-.525.092-.61.264-.077 2.609-.773 3-.885.165.552.2.675.221.733.1.335-.073.425-.317.537l.062.2.731-.331z" transform="translate(24.693 -62.887)"/><path d="m24.592 78.95a1.665 1.665 0 0 0 -.523-.835l-1.069-1.062-.127.133s.358.262.129.5l-2.13 2.151c-.177.177-.275.092-.5-.125l-.125.131 1.222 1.208.127-.123c-.185-.181-.421-.369-.21-.579l.806-.818.329.325-.144.875a2.452 2.452 0 0 0 -.029 1.037 1.129 1.129 0 0 0 .329.469l.371.36.115-.117-.087-.106a.994.994 0 0 1 -.152-.623c.01-.375.058-.843.125-1.443l.027-.244a1.458 1.458 0 0 0 1.268-.348.888.888 0 0 0 .246-.762m-.906.469a.841.841 0 0 1 -.714.319c-.1-.013-.156-.044-.292-.179l-.258-.254 1.189-1.2.173.173a.765.765 0 0 1 -.1 1.145" transform="translate(21.417 -68.254)"/><path d="m4.2 85.912a1.182 1.182 0 0 1 -.479-.112 15.964 15.964 0 0 1 -1.5-1.1.7.7 0 0 1 -.221-.277l-.035-.206.012-.14-.177-.021-.125 1.283.19.017.012-.131.09-.06.237.09 1.235.833s-1.37.639-1.5.683l-.158.04-.04-.037-.006-.029.006-.115-.179-.021-.131 1.449.177.017a.743.743 0 0 1 .092-.319 1.244 1.244 0 0 1 .383-.3c.283-.154 1.445-.723 1.522-.75a1.078 1.078 0 0 1 .521-.065s.523.048.848.081.317.206.3.452l.169.019.154-1.708-.162-.012c-.029.281-.029.552-.4.519z" transform="translate(1.047 -60.673)"/><path d="m25.174 86.693a1.059 1.059 0 0 1 .487.027 15.744 15.744 0 0 1 1.685.793.752.752 0 0 1 .26.233l.073.2.015.137.181-.021-.123-1.277-.189.017.015.131-.073.077a.653.653 0 0 1 -.252-.04l-1.372-.589s1.229-.885 1.347-.95l.144-.071.05.029.006.023.021.123.177-.021-.146-1.445-.177.019a.722.722 0 0 1 -.033.331 1.094 1.094 0 0 1 -.317.364c-.25.2-1.283.983-1.352 1.023a1.056 1.056 0 0 1 -.5.16l-.848.083c-.325.033-.35-.144-.375-.394l-.171.017.169 1.7.162-.017c-.027-.287-.077-.552.3-.581s.835-.085.835-.085" transform="translate(25.162 -60.66)"/><path d="m7.921 81.384-.135.223-3.755.848 1.833 1.131c.389.242.521-.062.656-.279l.156.1-.76 1.229-.158-.1c.121-.2.264-.383-.1-.608l-2.827-1.745.127-.208c.641-.137 3.709-.81 3.807-.833l-1.9-1.177c-.337-.206-.487.069-.591.237l-.154-.1.7-1.133.156.1c-.108.181-.235.346.1.556s2.849 1.758 2.849 1.758" transform="translate(2.561 -66.177)"/><path d="m16.753 78.146-.26-.017-2.518-2.907-.131 2.151c-.029.454.3.429.556.444l-.013.183-1.443-.083.008-.19c.229.017.462.054.487-.377s.2-3.311.2-3.311l.242.015c.427.5 2.47 2.88 2.539 2.957 0 0 .112-1.833.133-2.232s-.287-.4-.483-.41l.008-.181 1.333.079-.015.19c-.212-.015-.417-.048-.441.348s-.2 3.342-.2 3.342" transform="translate(13.508 -71.517)"/><path d="m21.247 76.5.044-.183-1.166-.506-.073.169.137.056.071.1-.146.225-1.087 1.091-.7.7c0-.1.069-1.5.1-2.108l.027-.535.037-.14.123-.013.137.058.071-.169-1.356-.591-.071.162a.712.712 0 0 1 .258.181.787.787 0 0 1 .069.416l-.056 3.64.152.067 2.064-1.9.741-.673a.515.515 0 0 1 .491-.1z" transform="translate(18.333 -70.849)"/><path d="m16.01 96.329v1.2h-.317v-1.2h-.81v.1c.081 0 .156.142.156.285v2.578h-1.674v-2.311h1.11v-.541h-1.97v.094c.081 0 .162.135.162.285v3.015h2.372v.862h.654v-2.628h.317v2.632h.7v-4.371z" transform="translate(13.033 -47.388)"/><path d="m25.79 94.324c-.56-.466-2.655-2.207-2.686-2.23l-2.193 2.643.417.348 1.749-2.11s1.762 1.464 2.264 1.885c-.185.233-.335.417-.335.417l-1.183-.983-.429.514 1.183.981-.231.277-1.185-.981-.5.6.077.06c.052-.062.208-.031.319.06l.889.737-.5.6.421.348 2.614-3.149-.423-.35c-.008.015-.117.154-.269.331" transform="translate(22.13 -51.972)"/><path d="m10.555 95.539-1.824 3.971.637.289 1.824-3.967z" transform="translate(8.947 -48.244)"/><path d="m10.013 95.325-.04.09c.075.031.087.19.025.325l-.339.735-.659-.304-.227.5.666.3-1.1 2.389.558.258 1.833-3.969z" transform="translate(8.519 -48.475)"/><path d="m9.207 96.878-.019-.044.012-.012a3.54 3.54 0 0 0 1.106-1.379l-.923-.425-.035.087c.008.008.177.142.029.464a3.319 3.319 0 0 1 -1.982 1.581l.162.419a3.463 3.463 0 0 0 1.166-.437l.019-.012.012.021a4.489 4.489 0 0 1 .4 1.314l.571-.323a5.521 5.521 0 0 0 -.519-1.254" transform="translate(7.501 -48.807)"/><path d="m18.041 98.252 2.639-1.264.4.848.635-.3-.646-1.343-3.269 1.569z" transform="translate(18.766 -47.541)"/><path d="m19.177 94.942-.775.371.042.087c.075-.035.2.056.267.187l.923 1.916.629-.3-.346-.716.621-.3-.212-.446-.619.3z" transform="translate(19.416 -48.89)"/><path d="m17.739 97.6a1.253 1.253 0 0 0 2.243-1.077 1.034 1.034 0 0 0 -.679-.544c.271-.127.458-.221.469-.227l-.233-.494-.885.427-.158-.333-.775.371.042.092c.067-.029.173.042.242.158l.019.019-.945.456.235.487c.015 0 .181-.083.427-.2a1.037 1.037 0 0 0 0 .868m1.4.035a.636.636 0 1 1 .277-.837.625.625 0 0 1 -.277.837" transform="translate(17.982 -48.541)"/><path d="m5.3 93.645-.564-.645-.071.06c.052.062 0 .212-.108.308l-.783.681 2.2 2.52.412-.356-1.739-2z" transform="translate(3.581 -50.991)"/><path d="m5.9 94.7c.2.229.587.677.587.677l-.852.748.458.525 2.376-2.074-.564-.646-.075.062c.056.06 0 .212-.108.308l-.123.112s-.531-.6-.65-.743a1.386 1.386 0 0 0 -.335-1.031 1.27 1.27 0 0 0 -1.774-.194 1.257 1.257 0 0 0 -.046 1.781 1.332 1.332 0 0 0 1.106.475m1.287.069-.287.248-.444-.51.108-.081.165-.181c.2.231.458.525.458.525m-1.911-1.826a.653.653 0 1 1 .854.983.653.653 0 1 1 -.854-.983" transform="translate(4.312 -51.892)"/></g><path d="m15.075 81.633a2.885 2.885 0 1 0 2.888 2.886 2.886 2.886 0 0 0 -2.888-2.886" fill="#0a2346" transform="translate(12.691 -63.297)"/><path d="m10.228 96.6a29.3 29.3 0 0 0 6.972 4.4 29.125 29.125 0 0 0 6.976-4.4l-6.976-6.994z" fill="#0a2346" transform="translate(10.568 -54.666)"/><path d="m35.152 92.238v-9.638s-8.218.264-14.194-4.334c-5.983 4.601-14.194 4.334-14.194 4.334v9.636a26.285 26.285 0 0 0 .306 4.327 77.174 77.174 0 0 1 27.776 0 26.558 26.558 0 0 0 .306-4.327m-14.194 1.558a5.635 5.635 0 1 1 5.642-5.637 5.639 5.639 0 0 1 -5.644 5.637" fill="#0a2346" transform="translate(6.814 -66.938)"/><path d="m6.978 88.093c.062.3.131.6.21.893a20.418 20.418 0 0 0 4.288 8.32l9.246-9.263 9.242 9.263a20.509 20.509 0 0 0 4.292-8.32c.077-.294.148-.6.206-.893a76.2 76.2 0 0 0 -27.485 0" fill="#0a2346" transform="translate(7.05 -57.657)"/><path d="m8.994 85.6h1.329l.079-.083v-2.717l-.079-.085h-1.079a.334.334 0 0 0 -.335.335v2.472z" fill="#fff" transform="translate(9.14 -62.128)"/><path d="m8.108 85.6h1.329l.081-.083v-2.47a.333.333 0 0 0 -.331-.335h-1.079l-.081.085v2.722z" fill="#fff" transform="translate(8.185 -62.128)"/><path d="m12.342 82.939h-.279v2.705h-1.68v.031a.323.323 0 0 1 -.643 0v-.031h-1.686v-2.705h-.279l-.085.083v2.87l.085.081h1.681a.685.685 0 0 0 1.2 0h1.685l.085-.081v-2.87z" fill="#fff" transform="translate(7.821 -61.883)"/><path d="m19.142 83.957h-1.1l-.1.1.358 2.293a.194.194 0 0 0 .192.167h.185l.19-.167.358-2.293z" fill="#fff" transform="translate(18.928 -60.781)"/><path d="m19.816 85.388c.283-.248.941-.968.87-1.372-.075-.439-1.3-1.07-1.37-1.547a1.352 1.352 0 0 1 .16-.748l-.073-.015c-.023.017-1.023.764-1.029 1.281a.873.873 0 0 0 .385.631 8.159 8.159 0 0 1 .662.516.813.813 0 0 1 .229.325c.1.277-.183.718-.358.929h-.4a2 2 0 0 0 .4-.706c.162-.614-1.381-.771-1.15-1.7l-.062-.021c-.019.008-.612.591-.614.991-.006.348.7.671 1.035 1.139v.3h-.627s-.15-.019-.087.123l.171.533a.133.133 0 0 0 .133.071h2.024a.138.138 0 0 0 .135-.071l.179-.539c.044-.127-.1-.117-.1-.117z" fill="#fff" transform="translate(18.411 -63.217)"/><path d="m12.611 92.24c-.1.071-.621.417-.637.427l-.048.073.058.067.05-.012.087-.037.217-.09.006.056v.81l-.006.623-.081.112-.212.015-.06.073.085.06h.337.254.346l.083-.06-.062-.073-.175-.015-.077-.112-.012-.623v-.514l.012-.687v-.04l-.069-.1z" fill="#fff" transform="translate(12.406 -51.862)"/><path d="m13.044 93.853a.578.578 0 0 1 .292-.5c.229.137.429.26.429.508a.348.348 0 0 1 -.354.379.373.373 0 0 1 -.367-.392m-.283-1.116a.6.6 0 0 0 .364.512.7.7 0 0 0 -.473.616c0 .367.289.587.737.587a.7.7 0 0 0 .781-.654.744.744 0 0 0 -.462-.623.586.586 0 0 0 .367-.512c0-.289-.242-.466-.61-.466-.519 0-.7.323-.7.539m.371-.056a.275.275 0 0 1 .3-.292.271.271 0 0 1 .267.3.385.385 0 0 1 -.233.373c-.246-.14-.333-.237-.333-.381" fill="#fff" transform="translate(13.192 -51.861)"/><path d="m13.974 93.853a.578.578 0 0 1 .285-.5c.235.137.431.26.431.508a.348.348 0 0 1 -.352.379.375.375 0 0 1 -.364-.392m-.287-1.116a.6.6 0 0 0 .364.512.706.706 0 0 0 -.475.616c0 .367.292.587.743.587a.694.694 0 0 0 .781-.647.748.748 0 0 0 -.462-.623.577.577 0 0 0 .362-.514c0-.289-.237-.466-.608-.466-.516 0-.7.323-.7.539m.369-.056a.28.28 0 0 1 .3-.292.267.267 0 0 1 .262.3.379.379 0 0 1 -.229.373c-.244-.14-.335-.237-.335-.381" fill="#fff" transform="translate(14.192 -51.861)"/><path d="m15.658 92.215-.177.012h-.687l-.087.071-.069.737.087.1c.19.025.671.183.671.623a.417.417 0 0 1 -.421.469.3.3 0 0 1 -.342-.333l-.062-.083-.071.079-.008.317v.04l.071.148a.828.828 0 0 0 .279.048.856.856 0 0 0 .958-.823c0-.473-.469-.723-.92-.8l.033-.275h.471c.2 0 .2.06.2.115l.065.075.067-.058.037-.364-.062-.1z" fill="#fff" transform="translate(15.184 -51.848)"/><path d="m9.138 96.681a21.887 21.887 0 0 0 2.27 2.282l6.974-6.991 6.974 6.989a21.671 21.671 0 0 0 2.27-2.28l-9.244-9.261z" fill="#fff" transform="translate(9.388 -57.032)"/><path d="m20.8 86.449a77.069 77.069 0 0 0 -13.888 1.26c.042.267.092.537.144.81a76.208 76.208 0 0 1 27.487 0c.054-.273.1-.544.148-.81a77.092 77.092 0 0 0 -13.89-1.26" fill="#fff" transform="translate(6.975 -58.083)"/><path d="m22.154 85.945a5.644 5.644 0 1 0 -5.644 5.635 5.638 5.638 0 0 0 5.644-5.635m-5.648 2.888a2.885 2.885 0 1 1 2.888-2.886 2.888 2.888 0 0 1 -2.888 2.886" fill="#fff" transform="translate(11.26 -64.727)"/><path d="m0 0h180.261v55.536h-180.261z" fill="none"/></g></svg>